<?xml version="1.0" encoding="UTF-8"?>
<svg id="Layer_2" data-name="Layer 2" xmlns="http://www.w3.org/2000/svg" viewBox="0 0 210.06 339.18">
<defs>
<style>
.cls-1 {
fill: #1e1e1e;
}
</style>
</defs>
<g id="Layer_1-2" data-name="Layer 1">
<g>
<path class="cls-1" d="M80.94,339.18C54.87,305.14,1.11,253.95,24.35,206.95c19.57-39.57,85.35-54.11,122.96-71.32,22.58-10.33,49.32-24.04,59.45-48.04l3.3,16.72c-1.5,34.98-17.01,51.98-47.34,65.85-9.29,4.25-42.44,13.21-44.92,22.07-1.23,4.4,2.15,8.29,6.11,9.36,5.31,1.43,20.62-6.08,26.58-8.63,13.92-5.95,28.69-13.54,41.9-20.98-2.86,36.18-36.16,66.88-69.22,78.06-8.2,2.77-42.23,7.56-42.23,16.69v72.45Z"/>
<path class="cls-1" d="M10.86,234.07c-2.26-.04-3.13-4.53-3.9-6.42-18.16-44.69.65-84.17,40.06-107.91,36.8-22.18,136.59-47.56,137.48-99.91.11-6.63-4.19-13.12-2.44-19.82,19.74,18.71,27.39,43.38,20.72,70.07-12.87,51.53-90.85,66.89-132.46,87.29-31.16,15.27-62.01,37.69-59.45,76.71Z"/>
</g>
</g>
</svg>